<svg width="107" height="16" viewBox="0 0 107 16" fill="none" xmlns="http://www.w3.org/2000/svg">
<path d="M10.8041 1.91417V11H8.9817V5.0903L6.54753 11H5.16773L2.72054 5.0903V11H0.89817V1.91417H2.96786L5.85763 8.66997L8.74739 1.91417H10.8041ZM11.8768 7.36827C11.8768 6.63932 12.02 5.99281 12.3064 5.42875C12.6015 4.86468 12.9963 4.43078 13.4909 4.12705C13.9943 3.82332 14.554 3.67146 15.1701 3.67146C15.7082 3.67146 16.1768 3.77993 16.576 3.99688C16.9838 4.21383 17.3093 4.48719 17.5522 4.81695V3.78861H19.3876V11H17.5522V9.94563C17.3179 10.2841 16.9925 10.5661 16.576 10.7917C16.1681 11.0087 15.6952 11.1172 15.1571 11.1172C14.5497 11.1172 13.9943 10.9609 13.4909 10.6485C12.9963 10.3361 12.6015 9.8979 12.3064 9.33383C12.02 8.76108 11.8768 8.1059 11.8768 7.36827ZM17.5522 7.3943C17.5522 6.95173 17.4655 6.57424 17.2919 6.26183C17.1183 5.94075 16.884 5.69776 16.589 5.53288C16.2939 5.35932 15.9772 5.27254 15.6387 5.27254C15.3003 5.27254 14.9879 5.35498 14.7015 5.51986C14.4152 5.68475 14.1808 5.92773 13.9986 6.24881C13.8251 6.56122 13.7383 6.93437 13.7383 7.36827C13.7383 7.80217 13.8251 8.184 13.9986 8.51376C14.1808 8.83485 14.4152 9.08217 14.7015 9.25573C14.9966 9.42929 15.309 9.51607 15.6387 9.51607C15.9772 9.51607 16.2939 9.43363 16.589 9.26875C16.884 9.09519 17.1183 8.8522 17.2919 8.5398C17.4655 8.21871 17.5522 7.83688 17.5522 7.3943ZM22.7295 4.90807C22.9638 4.52624 23.2676 4.22685 23.6407 4.0099C24.0225 3.79295 24.4564 3.68447 24.9424 3.68447V5.59797H24.4608C23.888 5.59797 23.4541 5.73247 23.1591 6.00149C22.8727 6.27051 22.7295 6.73912 22.7295 7.40732V11H20.9072V3.78861H22.7295V4.90807ZM25.4409 7.3943C25.4409 6.648 25.5928 5.99715 25.8965 5.44176C26.2002 4.87769 26.6211 4.4438 27.1592 4.14007C27.6972 3.82766 28.3133 3.67146 29.0076 3.67146C29.9014 3.67146 30.639 3.89708 31.2204 4.34834C31.8105 4.79091 32.2054 5.41573 32.405 6.22278H30.4394C30.3353 5.91037 30.1574 5.66739 29.9057 5.49383C29.6627 5.31159 29.359 5.22047 28.9945 5.22047C28.4739 5.22047 28.0617 5.41139 27.7579 5.79322C27.4542 6.16637 27.3023 6.70007 27.3023 7.3943C27.3023 8.07986 27.4542 8.61356 27.7579 8.99539C28.0617 9.36854 28.4739 9.55512 28.9945 9.55512C29.7322 9.55512 30.2138 9.22536 30.4394 8.56583H32.405C32.2054 9.34685 31.8105 9.96732 31.2204 10.4273C30.6303 10.8872 29.8927 11.1172 29.0076 11.1172C28.3133 11.1172 27.6972 10.9653 27.1592 10.6616C26.6211 10.3492 26.2002 9.91525 25.8965 9.35986C25.5928 8.7958 25.4409 8.14061 25.4409 7.3943ZM36.6819 11.1172C35.9876 11.1172 35.3628 10.9653 34.8074 10.6616C34.252 10.3492 33.8138 9.91092 33.4927 9.34685C33.1803 8.78278 33.0241 8.13193 33.0241 7.3943C33.0241 6.65668 33.1846 6.00583 33.5057 5.44176C33.8355 4.87769 34.2824 4.4438 34.8465 4.14007C35.4105 3.82766 36.0397 3.67146 36.7339 3.67146C37.4282 3.67146 38.0573 3.82766 38.6214 4.14007C39.1855 4.4438 39.628 4.87769 39.9491 5.44176C40.2789 6.00583 40.4438 6.65668 40.4438 7.3943C40.4438 8.13193 40.2745 8.78278 39.9361 9.34685C39.6063 9.91092 39.1551 10.3492 38.5823 10.6616C38.0183 10.9653 37.3848 11.1172 36.6819 11.1172ZM36.6819 9.52908C37.0116 9.52908 37.3197 9.45098 37.6061 9.29478C37.9011 9.1299 38.1354 8.88692 38.309 8.56583C38.4825 8.24475 38.5693 7.85424 38.5693 7.3943C38.5693 6.70875 38.3871 6.18373 38.0226 5.81925C37.6668 5.4461 37.2286 5.25953 36.7079 5.25953C36.1872 5.25953 35.749 5.4461 35.3932 5.81925C35.0461 6.18373 34.8725 6.70875 34.8725 7.3943C34.8725 8.07986 35.0417 8.60922 35.3802 8.98237C35.7273 9.34685 36.1612 9.52908 36.6819 9.52908ZM41.8847 1.91417H43.7982L42.3923 5.19444H41.1427L41.8847 1.91417ZM47.6042 11.1172C47.0141 11.1172 46.4847 11.013 46.0161 10.8047C45.5475 10.5878 45.1744 10.2971 44.8967 9.93261C44.6277 9.56814 44.4801 9.16461 44.4541 8.72203H46.2895C46.3242 8.99973 46.4587 9.22969 46.693 9.41193C46.936 9.59417 47.2354 9.68529 47.5912 9.68529C47.9383 9.68529 48.2073 9.61586 48.3982 9.47702C48.5978 9.33817 48.6976 9.16027 48.6976 8.94332C48.6976 8.70902 48.5761 8.53546 48.3332 8.42264C48.0988 8.30115 47.7214 8.17098 47.2007 8.03214C46.6626 7.90197 46.2201 7.76746 45.873 7.62861C45.5345 7.48976 45.2395 7.27715 44.9878 6.99078C44.7448 6.70441 44.6233 6.31824 44.6233 5.83227C44.6233 5.43308 44.7361 5.06861 44.9618 4.73885C45.1961 4.40908 45.5258 4.14874 45.9511 3.95783C46.385 3.76691 46.8926 3.67146 47.474 3.67146C48.3332 3.67146 49.0187 3.88841 49.5307 4.3223C50.0427 4.74752 50.3247 5.32461 50.3768 6.05356H48.6325C48.6065 5.76719 48.485 5.54156 48.2681 5.37668C48.0598 5.20312 47.7778 5.11634 47.422 5.11634C47.0922 5.11634 46.8362 5.17708 46.654 5.29858C46.4804 5.42007 46.3936 5.58929 46.3936 5.80624C46.3936 6.04922 46.5151 6.2358 46.7581 6.36597C47.0011 6.48746 47.3786 6.61329 47.8906 6.74346C48.4113 6.87363 48.8408 7.00814 49.1793 7.14698C49.5177 7.28583 49.8084 7.50278 50.0514 7.79783C50.3031 8.0842 50.4332 8.46603 50.4419 8.94332C50.4419 9.35986 50.3247 9.73302 50.0904 10.0628C49.8648 10.3925 49.5351 10.6529 49.1012 10.8438C48.6759 11.026 48.177 11.1172 47.6042 11.1172ZM61.1445 4.72583C61.1445 5.2118 61.0273 5.66739 60.793 6.09261C60.5674 6.51783 60.2073 6.86061 59.7126 7.12095C59.2266 7.38129 58.6105 7.51146 57.8642 7.51146H56.3412V11H54.5188V1.91417H57.8642C58.5671 1.91417 59.1659 2.03566 59.6605 2.27864C60.1552 2.52163 60.524 2.85573 60.767 3.28095C61.0186 3.70617 61.1445 4.1878 61.1445 4.72583ZM57.7861 6.04054C58.2894 6.04054 58.6626 5.92773 58.9056 5.7021C59.1485 5.4678 59.27 5.14237 59.27 4.72583C59.27 3.84068 58.7754 3.3981 57.7861 3.3981H56.3412V6.04054H57.7861ZM65.3802 11.1172C64.6859 11.1172 64.0611 10.9653 63.5057 10.6616C62.9503 10.3492 62.5121 9.91092 62.191 9.34685C61.8786 8.78278 61.7224 8.13193 61.7224 7.3943C61.7224 6.65668 61.8829 6.00583 62.204 5.44176C62.5338 4.87769 62.9807 4.4438 63.5448 4.14007C64.1088 3.82766 64.738 3.67146 65.4322 3.67146C66.1265 3.67146 66.7556 3.82766 67.3197 4.14007C67.8838 4.4438 68.3263 4.87769 68.6474 5.44176C68.9772 6.00583 69.1421 6.65668 69.1421 7.3943C69.1421 8.13193 68.9728 8.78278 68.6344 9.34685C68.3046 9.91092 67.8534 10.3492 67.2806 10.6616C66.7166 10.9653 66.0831 11.1172 65.3802 11.1172ZM65.3802 9.52908C65.7099 9.52908 66.018 9.45098 66.3044 9.29478C66.5994 9.1299 66.8337 8.88692 67.0073 8.56583C67.1808 8.24475 67.2676 7.85424 67.2676 7.3943C67.2676 6.70875 67.0854 6.18373 66.7209 5.81925C66.3651 5.4461 65.9269 5.25953 65.4062 5.25953C64.8855 5.25953 64.4473 5.4461 64.0915 5.81925C63.7444 6.18373 63.5708 6.70875 63.5708 7.3943C63.5708 8.07986 63.74 8.60922 64.0785 8.98237C64.4256 9.34685 64.8595 9.52908 65.3802 9.52908ZM72.0409 4.90807C72.2752 4.52624 72.5789 4.22685 72.9521 4.0099C73.3339 3.79295 73.7678 3.68447 74.2538 3.68447V5.59797H73.7721C73.1994 5.59797 72.7655 5.73247 72.4704 6.00149C72.1841 6.27051 72.0409 6.73912 72.0409 7.40732V11H70.2185V3.78861H72.0409V4.90807ZM77.3426 5.28556V8.7741C77.3426 9.01708 77.3991 9.19498 77.5119 9.3078C77.6334 9.41193 77.833 9.464 78.1106 9.464H78.9567V11H77.8113C76.2753 11 75.5073 10.2537 75.5073 8.76108V5.28556H74.6481V3.78861H75.5073V2.00529H77.3426V3.78861H78.9567V5.28556H77.3426ZM83.3135 5.28556H82.0508V11H80.2024V5.28556H79.3823V3.78861H80.2024V3.42414C80.2024 2.53898 80.4541 1.88813 80.9574 1.47159C81.4607 1.05505 82.22 0.859796 83.2354 0.88583V2.42183C82.7928 2.41315 82.4847 2.48691 82.3112 2.64312C82.1376 2.79932 82.0508 3.08136 82.0508 3.48922V3.78861H83.3135V5.28556ZM87.4363 11.1172C86.742 11.1172 86.1172 10.9653 85.5618 10.6616C85.0064 10.3492 84.5682 9.91092 84.2471 9.34685C83.9347 8.78278 83.7785 8.13193 83.7785 7.3943C83.7785 6.65668 83.9391 6.00583 84.2601 5.44176C84.5899 4.87769 85.0368 4.4438 85.6009 4.14007C86.165 3.82766 86.7941 3.67146 87.4883 3.67146C88.1826 3.67146 88.8117 3.82766 89.3758 4.14007C89.9399 4.4438 90.3824 4.87769 90.7035 5.44176C91.0333 6.00583 91.1982 6.65668 91.1982 7.3943C91.1982 8.13193 91.029 8.78278 90.6905 9.34685C90.3608 9.91092 89.9095 10.3492 89.3368 10.6616C88.7727 10.9653 88.1392 11.1172 87.4363 11.1172ZM87.4363 9.52908C87.766 9.52908 88.0741 9.45098 88.3605 9.29478C88.6555 9.1299 88.8898 8.88692 89.0634 8.56583C89.237 8.24475 89.3237 7.85424 89.3237 7.3943C89.3237 6.70875 89.1415 6.18373 88.777 5.81925C88.4212 5.4461 87.983 5.25953 87.4623 5.25953C86.9416 5.25953 86.5034 5.4461 86.1476 5.81925C85.8005 6.18373 85.6269 6.70875 85.6269 7.3943C85.6269 8.07986 85.7961 8.60922 86.1346 8.98237C86.4817 9.34685 86.9156 9.52908 87.4363 9.52908ZM94.097 1.36746V11H92.2746V1.36746H94.097ZM96.5614 2.92949C96.2403 2.92949 95.9713 2.82969 95.7543 2.6301C95.546 2.42183 95.4419 2.16583 95.4419 1.8621C95.4419 1.55837 95.546 1.30671 95.7543 1.10712C95.9713 0.898847 96.2403 0.794711 96.5614 0.794711C96.8824 0.794711 97.1471 0.898847 97.3554 1.10712C97.5723 1.30671 97.6808 1.55837 97.6808 1.8621C97.6808 2.16583 97.5723 2.42183 97.3554 2.6301C97.1471 2.82969 96.8824 2.92949 96.5614 2.92949ZM97.4595 3.78861V11H95.6372V3.78861H97.4595ZM102.202 11.1172C101.508 11.1172 100.883 10.9653 100.327 10.6616C99.772 10.3492 99.3338 9.91092 99.0127 9.34685C98.7003 8.78278 98.5441 8.13193 98.5441 7.3943C98.5441 6.65668 98.7047 6.00583 99.0257 5.44176C99.3555 4.87769 99.8024 4.4438 100.366 4.14007C100.931 3.82766 101.56 3.67146 102.254 3.67146C102.948 3.67146 103.577 3.82766 104.141 4.14007C104.705 4.4438 105.148 4.87769 105.469 5.44176C105.799 6.00583 105.964 6.65668 105.964 7.3943C105.964 8.13193 105.795 8.78278 105.456 9.34685C105.126 9.91092 104.675 10.3492 104.102 10.6616C103.538 10.9653 102.905 11.1172 102.202 11.1172ZM102.202 9.52908C102.532 9.52908 102.84 9.45098 103.126 9.29478C103.421 9.1299 103.655 8.88692 103.829 8.56583C104.003 8.24475 104.089 7.85424 104.089 7.3943C104.089 6.70875 103.907 6.18373 103.543 5.81925C103.187 5.4461 102.749 5.25953 102.228 5.25953C101.707 5.25953 101.269 5.4461 100.913 5.81925C100.566 6.18373 100.393 6.70875 100.393 7.3943C100.393 8.07986 100.562 8.60922 100.9 8.98237C101.247 9.34685 101.681 9.52908 102.202 9.52908Z" fill="#212121"/>
</svg>
