<svg width="133" height="23" viewBox="0 0 133 23" fill="none" xmlns="http://www.w3.org/2000/svg">
<path fill-rule="evenodd" clip-rule="evenodd" d="M9.16085 0H22.1444V8.89235L15.7871 11.5934L15.7626 11.5507L13.919 12.3422L11.5895 22.1285H0.0101242V18.3142L0 18.3185V0.0303726H9.17821L9.16085 0ZM11.4041 1.3017L16.343 9.94291L20.8427 8.0311V1.3017H11.4041ZM9.24411 1.33207H1.30169V16.343L14.4947 10.6785L9.24411 1.33207ZM1.31182 18.3319V20.8268H10.5613L12.2759 13.6238L1.31182 18.3319Z" fill="white"/>
<path d="M36.1874 5.7235V14.8093H34.365V8.89963L31.9308 14.8093H30.551L28.1038 8.89963V14.8093H26.2815V5.7235H28.3512L31.2409 12.4793L34.1307 5.7235H36.1874ZM37.2601 11.1776C37.2601 10.4486 37.4033 9.80214 37.6897 9.23807C37.9848 8.674 38.3796 8.24011 38.8743 7.93638C39.3776 7.63265 39.9373 7.48078 40.5534 7.48078C41.0915 7.48078 41.5601 7.58926 41.9593 7.80621C42.3671 8.02316 42.6926 8.29651 42.9355 8.62627V7.59794H44.7709V14.8093H42.9355V13.755C42.7012 14.0934 42.3758 14.3754 41.9593 14.6011C41.5514 14.818 41.0785 14.9265 40.5404 14.9265C39.933 14.9265 39.3776 14.7703 38.8743 14.4579C38.3796 14.1455 37.9848 13.7072 37.6897 13.1432C37.4033 12.5704 37.2601 11.9152 37.2601 11.1776ZM42.9355 11.2036C42.9355 10.7611 42.8488 10.3836 42.6752 10.0712C42.5016 9.75007 42.2673 9.50709 41.9723 9.34221C41.6772 9.16865 41.3605 9.08187 41.022 9.08187C40.6836 9.08187 40.3712 9.16431 40.0848 9.32919C39.7985 9.49407 39.5641 9.73705 39.3819 10.0581C39.2084 10.3705 39.1216 10.7437 39.1216 11.1776C39.1216 11.6115 39.2084 11.9933 39.3819 12.3231C39.5641 12.6442 39.7985 12.8915 40.0848 13.0651C40.3799 13.2386 40.6923 13.3254 41.022 13.3254C41.3605 13.3254 41.6772 13.243 41.9723 13.0781C42.2673 12.9045 42.5016 12.6615 42.6752 12.3491C42.8488 12.028 42.9355 11.6462 42.9355 11.2036ZM48.1128 8.71739C48.3471 8.33556 48.6509 8.03617 49.024 7.81922C49.4058 7.60227 49.8397 7.4938 50.3257 7.4938V9.40729H49.8441C49.2713 9.40729 48.8374 9.5418 48.5424 9.81082C48.256 10.0798 48.1128 10.5484 48.1128 11.2166V14.8093H46.2905V7.59794H48.1128V8.71739ZM50.8242 11.2036C50.8242 10.4573 50.9761 9.80648 51.2798 9.25109C51.5835 8.68702 52.0044 8.25312 52.5425 7.94939C53.0805 7.63699 53.6966 7.48078 54.3909 7.48078C55.2847 7.48078 56.0223 7.70641 56.6037 8.15766C57.1938 8.60024 57.5887 9.22505 57.7883 10.0321H55.8227C55.7186 9.7197 55.5407 9.47672 55.289 9.30316C55.046 9.12092 54.7423 9.0298 54.3778 9.0298C53.8572 9.0298 53.445 9.22072 53.1412 9.60255C52.8375 9.9757 52.6856 10.5094 52.6856 11.2036C52.6856 11.8892 52.8375 12.4229 53.1412 12.8047C53.445 13.1779 53.8572 13.3644 54.3778 13.3644C55.1155 13.3644 55.5971 13.0347 55.8227 12.3752H57.7883C57.5887 13.1562 57.1938 13.7766 56.6037 14.2366C56.0136 14.6965 55.276 14.9265 54.3909 14.9265C53.6966 14.9265 53.0805 14.7746 52.5425 14.4709C52.0044 14.1585 51.5835 13.7246 51.2798 13.1692C50.9761 12.6051 50.8242 11.9499 50.8242 11.2036ZM62.0652 14.9265C61.3709 14.9265 60.7461 14.7746 60.1907 14.4709C59.6353 14.1585 59.1971 13.7202 58.876 13.1562C58.5636 12.5921 58.4074 11.9413 58.4074 11.2036C58.4074 10.466 58.5679 9.81516 58.889 9.25109C59.2188 8.68702 59.6657 8.25312 60.2298 7.94939C60.7938 7.63699 61.423 7.48078 62.1172 7.48078C62.8115 7.48078 63.4406 7.63699 64.0047 7.94939C64.5688 8.25312 65.0113 8.68702 65.3324 9.25109C65.6622 9.81516 65.8271 10.466 65.8271 11.2036C65.8271 11.9413 65.6578 12.5921 65.3194 13.1562C64.9896 13.7202 64.5384 14.1585 63.9656 14.4709C63.4016 14.7746 62.7681 14.9265 62.0652 14.9265ZM62.0652 13.3384C62.3949 13.3384 62.703 13.2603 62.9894 13.1041C63.2844 12.9392 63.5187 12.6962 63.6923 12.3752C63.8658 12.0541 63.9526 11.6636 63.9526 11.2036C63.9526 10.5181 63.7704 9.99305 63.4059 9.62858C63.0501 9.25543 62.6119 9.06885 62.0912 9.06885C61.5705 9.06885 61.1323 9.25543 60.7765 9.62858C60.4294 9.99305 60.2558 10.5181 60.2558 11.2036C60.2558 11.8892 60.425 12.4185 60.7635 12.7917C61.1106 13.1562 61.5445 13.3384 62.0652 13.3384ZM67.268 5.7235H69.1815L67.7756 9.00377H66.526L67.268 5.7235ZM72.9875 14.9265C72.3974 14.9265 71.868 14.8223 71.3994 14.6141C70.9308 14.3971 70.5577 14.1064 70.28 13.7419C70.011 13.3775 69.8634 12.9739 69.8374 12.5314H71.6728C71.7075 12.8091 71.842 13.039 72.0763 13.2213C72.3193 13.4035 72.6187 13.4946 72.9745 13.4946C73.3216 13.4946 73.5906 13.4252 73.7815 13.2863C73.9811 13.1475 74.0809 12.9696 74.0809 12.7526C74.0809 12.5183 73.9594 12.3448 73.7165 12.232C73.4821 12.1105 73.1047 11.9803 72.584 11.8415C72.0459 11.7113 71.6034 11.5768 71.2563 11.4379C70.9178 11.2991 70.6228 11.0865 70.3711 10.8001C70.1281 10.5137 70.0066 10.1276 70.0066 9.6416C70.0066 9.24241 70.1194 8.87794 70.3451 8.54817C70.5794 8.21841 70.9091 7.95807 71.3344 7.76716C71.7683 7.57624 72.2759 7.48078 72.8573 7.48078C73.7165 7.48078 74.402 7.69773 74.914 8.13163C75.426 8.55685 75.708 9.13394 75.7601 9.86288H74.0158C73.9898 9.57651 73.8683 9.35089 73.6514 9.186C73.4431 9.01244 73.1611 8.92566 72.8053 8.92566C72.4755 8.92566 72.2195 8.98641 72.0373 9.1079C71.8637 9.22939 71.7769 9.39861 71.7769 9.61556C71.7769 9.85855 71.8984 10.0451 72.1414 10.1753C72.3844 10.2968 72.7619 10.4226 73.2739 10.5528C73.7946 10.683 74.2241 10.8175 74.5626 10.9563C74.901 11.0952 75.1917 11.3121 75.4347 11.6072C75.6864 11.8935 75.8165 12.2754 75.8252 12.7526C75.8252 13.1692 75.708 13.5423 75.4737 13.8721C75.2481 14.2019 74.9184 14.4622 74.4845 14.6531C74.0592 14.8354 73.5603 14.9265 72.9875 14.9265ZM86.5278 8.53516C86.5278 9.02112 86.4106 9.47672 86.1763 9.90194C85.9507 10.3272 85.5906 10.6699 85.0959 10.9303C84.6099 11.1906 83.9938 11.3208 83.2475 11.3208H81.7245V14.8093H79.9021V5.7235H83.2475C83.9504 5.7235 84.5492 5.84499 85.0438 6.08797C85.5385 6.33095 85.9073 6.66505 86.1503 7.09027C86.4019 7.51549 86.5278 7.99712 86.5278 8.53516ZM83.1694 9.84987C83.6727 9.84987 84.0459 9.73705 84.2889 9.51143C84.5318 9.27712 84.6533 8.9517 84.6533 8.53516C84.6533 7.65 84.1587 7.20743 83.1694 7.20743H81.7245V9.84987H83.1694ZM90.7635 14.9265C90.0692 14.9265 89.4444 14.7746 88.889 14.4709C88.3336 14.1585 87.8954 13.7202 87.5743 13.1562C87.2619 12.5921 87.1057 11.9413 87.1057 11.2036C87.1057 10.466 87.2663 9.81516 87.5873 9.25109C87.9171 8.68702 88.364 8.25312 88.9281 7.94939C89.4921 7.63699 90.1213 7.48078 90.8155 7.48078C91.5098 7.48078 92.1389 7.63699 92.703 7.94939C93.2671 8.25312 93.7096 8.68702 94.0307 9.25109C94.3605 9.81516 94.5254 10.466 94.5254 11.2036C94.5254 11.9413 94.3561 12.5921 94.0177 13.1562C93.6879 13.7202 93.2367 14.1585 92.6639 14.4709C92.0999 14.7746 91.4664 14.9265 90.7635 14.9265ZM90.7635 13.3384C91.0932 13.3384 91.4013 13.2603 91.6877 13.1041C91.9827 12.9392 92.217 12.6962 92.3906 12.3752C92.5641 12.0541 92.6509 11.6636 92.6509 11.2036C92.6509 10.5181 92.4687 9.99305 92.1042 9.62858C91.7484 9.25543 91.3102 9.06885 90.7895 9.06885C90.2688 9.06885 89.8306 9.25543 89.4748 9.62858C89.1277 9.99305 88.9541 10.5181 88.9541 11.2036C88.9541 11.8892 89.1233 12.4185 89.4618 12.7917C89.8089 13.1562 90.2428 13.3384 90.7635 13.3384ZM97.4242 8.71739C97.6585 8.33556 97.9622 8.03617 98.3354 7.81922C98.7172 7.60227 99.1511 7.4938 99.6371 7.4938V9.40729H99.1554C98.5827 9.40729 98.1488 9.5418 97.8537 9.81082C97.5674 10.0798 97.4242 10.5484 97.4242 11.2166V14.8093H95.6018V7.59794H97.4242V8.71739ZM102.726 9.09489V12.5834C102.726 12.8264 102.782 13.0043 102.895 13.1171C103.017 13.2213 103.216 13.2733 103.494 13.2733H104.34V14.8093H103.195C101.659 14.8093 100.891 14.063 100.891 12.5704V9.09489H100.031V7.59794H100.891V5.81461H102.726V7.59794H104.34V9.09489H102.726ZM108.697 9.09489H107.434V14.8093H105.586V9.09489H104.766V7.59794H105.586V7.23346C105.586 6.34831 105.837 5.69746 106.341 5.28092C106.844 4.86438 107.603 4.66912 108.619 4.69516V6.23116C108.176 6.22248 107.868 6.29624 107.694 6.45244C107.521 6.60865 107.434 6.89068 107.434 7.29855V7.59794H108.697V9.09489ZM112.82 14.9265C112.125 14.9265 111.501 14.7746 110.945 14.4709C110.39 14.1585 109.952 13.7202 109.63 13.1562C109.318 12.5921 109.162 11.9413 109.162 11.2036C109.162 10.466 109.322 9.81516 109.643 9.25109C109.973 8.68702 110.42 8.25312 110.984 7.94939C111.548 7.63699 112.177 7.48078 112.872 7.48078C113.566 7.48078 114.195 7.63699 114.759 7.94939C115.323 8.25312 115.766 8.68702 116.087 9.25109C116.417 9.81516 116.581 10.466 116.581 11.2036C116.581 11.9413 116.412 12.5921 116.074 13.1562C115.744 13.7202 115.293 14.1585 114.72 14.4709C114.156 14.7746 113.522 14.9265 112.82 14.9265ZM112.82 13.3384C113.149 13.3384 113.457 13.2603 113.744 13.1041C114.039 12.9392 114.273 12.6962 114.447 12.3752C114.62 12.0541 114.707 11.6636 114.707 11.2036C114.707 10.5181 114.525 9.99305 114.16 9.62858C113.805 9.25543 113.366 9.06885 112.846 9.06885C112.325 9.06885 111.887 9.25543 111.531 9.62858C111.184 9.99305 111.01 10.5181 111.01 11.2036C111.01 11.8892 111.179 12.4185 111.518 12.7917C111.865 13.1562 112.299 13.3384 112.82 13.3384ZM119.48 5.17678V14.8093H117.658V5.17678H119.48ZM121.945 6.73882C121.624 6.73882 121.355 6.63902 121.138 6.43943C120.929 6.23116 120.825 5.97516 120.825 5.67143C120.825 5.3677 120.929 5.11604 121.138 4.91644C121.355 4.70817 121.624 4.60404 121.945 4.60404C122.266 4.60404 122.53 4.70817 122.739 4.91644C122.956 5.11604 123.064 5.3677 123.064 5.67143C123.064 5.97516 122.956 6.23116 122.739 6.43943C122.53 6.63902 122.266 6.73882 121.945 6.73882ZM122.843 7.59794V14.8093H121.02V7.59794H122.843ZM127.585 14.9265C126.891 14.9265 126.266 14.7746 125.711 14.4709C125.155 14.1585 124.717 13.7202 124.396 13.1562C124.084 12.5921 123.927 11.9413 123.927 11.2036C123.927 10.466 124.088 9.81516 124.409 9.25109C124.739 8.68702 125.186 8.25312 125.75 7.94939C126.314 7.63699 126.943 7.48078 127.637 7.48078C128.331 7.48078 128.961 7.63699 129.525 7.94939C130.089 8.25312 130.531 8.68702 130.852 9.25109C131.182 9.81516 131.347 10.466 131.347 11.2036C131.347 11.9413 131.178 12.5921 130.839 13.1562C130.51 13.7202 130.058 14.1585 129.486 14.4709C128.922 14.7746 128.288 14.9265 127.585 14.9265ZM127.585 13.3384C127.915 13.3384 128.223 13.2603 128.509 13.1041C128.804 12.9392 129.039 12.6962 129.212 12.3752C129.386 12.0541 129.473 11.6636 129.473 11.2036C129.473 10.5181 129.29 9.99305 128.926 9.62858C128.57 9.25543 128.132 9.06885 127.611 9.06885C127.091 9.06885 126.652 9.25543 126.296 9.62858C125.949 9.99305 125.776 10.5181 125.776 11.2036C125.776 11.8892 125.945 12.4185 126.283 12.7917C126.631 13.1562 127.064 13.3384 127.585 13.3384Z" fill="white"/>
</svg>
